<svg width="780" height="400" fill="none" xmlns="http://www.w3.org/2000/svg"><path fill="#091E42" d="M0 0h780v400H0z"/><path fill="url(#a)" d="M0 0h780v400H0z"/><path fill="url(#b)" d="M0 0h780v400H0z"/><path fill="url(#c)" d="M0 0h780v400H0z"/><g filter="url(#d)"><path d="M611.343 102h72.732c2.316 0 4.193 1.497 4.193 3.343v129.839c0 1.846-1.877 3.343-4.193 3.343h-72.732c-2.315 0-4.193-1.497-4.193-3.343V105.343c0-1.846 1.878-3.343 4.193-3.343Z" fill="url(#e)"/><path d="M620.548 124.733h54.611a6.466 6.466 0 0 1 6.466 6.466v80.268a6.466 6.466 0 0 1-6.466 6.466h-54.611a6.466 6.466 0 0 1-6.467-6.466v-80.268a6.466 6.466 0 0 1 6.467-6.466Z" fill="#E7EEFF" fill-opacity=".17"/><path d="M621.353 136.099h26.884a3 3 0 1 1 0 6.001h-26.884a3 3 0 1 1 0-6.001Z" fill="#fff" fill-opacity=".2"/><path d="M672.733 136.099h.857a2.495 2.495 0 0 1 2.495 2.494v1.012a2.495 2.495 0 0 1-2.495 2.495h-.857a2.494 2.494 0 0 1-2.494-2.495v-1.012a2.494 2.494 0 0 1 2.494-2.494Z" fill="#3D7FFC"/><path d="M664.694 136.099h.857a2.494 2.494 0 0 1 2.494 2.494v1.012a2.494 2.494 0 0 1-2.494 2.495h-.857a2.495 2.495 0 0 1-2.495-2.495v-1.012a2.495 2.495 0 0 1 2.495-2.494Z" fill="#15C1E6"/><path d="M656.655 136.099h.858a2.494 2.494 0 0 1 2.494 2.494v1.012a2.494 2.494 0 0 1-2.494 2.495h-.858a2.495 2.495 0 0 1-2.494-2.495v-1.012a2.495 2.495 0 0 1 2.494-2.494Z" fill="#9D97F4"/><path d="M621.353 152.011h26.884a3 3 0 1 1 0 6.001h-26.884a3 3 0 1 1 0-6.001Z" fill="#fff" fill-opacity=".2"/><path d="M672.733 152.011h.857a2.495 2.495 0 0 1 2.495 2.494v1.012a2.495 2.495 0 0 1-2.495 2.495h-.857a2.494 2.494 0 0 1-2.494-2.495v-1.012a2.494 2.494 0 0 1 2.494-2.494ZM664.694 152.011h.857a2.494 2.494 0 0 1 2.494 2.494v1.012a2.494 2.494 0 0 1-2.494 2.495h-.857a2.495 2.495 0 0 1-2.495-2.495v-1.012a2.495 2.495 0 0 1 2.495-2.494Z" fill="#3D7FFC"/><path d="M656.655 152.011h.858a2.494 2.494 0 0 1 2.494 2.494v1.012a2.494 2.494 0 0 1-2.494 2.495h-.858a2.495 2.495 0 0 1-2.494-2.495v-1.012a2.495 2.495 0 0 1 2.494-2.494Z" fill="#15C1E6"/><path d="M621.353 167.923h26.884a3 3 0 1 1 0 6.001h-26.884a3 3 0 1 1 0-6.001Z" fill="#fff" fill-opacity=".2"/><path d="M672.733 167.923h.857a2.495 2.495 0 0 1 2.495 2.494v1.013a2.495 2.495 0 0 1-2.495 2.494h-.857a2.494 2.494 0 0 1-2.494-2.494v-1.013a2.494 2.494 0 0 1 2.494-2.494Z" fill="#15C1E6"/><path d="M664.694 167.923h.857a2.494 2.494 0 0 1 2.494 2.494v1.013a2.494 2.494 0 0 1-2.494 2.494h-.857a2.495 2.495 0 0 1-2.495-2.494v-1.013a2.495 2.495 0 0 1 2.495-2.494Z" fill="#9D97F4"/><path d="M656.655 167.923h.858a2.494 2.494 0 0 1 2.494 2.494v1.013a2.494 2.494 0 0 1-2.494 2.494h-.858a2.495 2.495 0 0 1-2.494-2.494v-1.013a2.495 2.495 0 0 1 2.494-2.494Z" fill="#3D7FFC"/><path d="M621.353 183.835h26.884a3.002 3.002 0 0 1 0 6.001h-26.884a3 3 0 1 1 0-6.001Z" fill="#fff" fill-opacity=".2"/><path d="M672.733 183.835h.857a2.495 2.495 0 0 1 2.495 2.495v1.012a2.495 2.495 0 0 1-2.495 2.494h-.857a2.494 2.494 0 0 1-2.494-2.494v-1.012a2.494 2.494 0 0 1 2.494-2.495Z" fill="#3D7FFC"/><path d="M664.694 183.835h.857a2.494 2.494 0 0 1 2.494 2.495v1.012a2.494 2.494 0 0 1-2.494 2.494h-.857a2.495 2.495 0 0 1-2.495-2.494v-1.012a2.495 2.495 0 0 1 2.495-2.495Z" fill="#15C1E6"/><path d="M656.655 183.835h.858a2.494 2.494 0 0 1 2.494 2.495v1.012a2.494 2.494 0 0 1-2.494 2.494h-.858a2.495 2.495 0 0 1-2.494-2.494v-1.012a2.495 2.495 0 0 1 2.494-2.495Z" fill="#3D7FFC"/><path d="M621.353 199.746h26.884a3 3 0 1 1 0 6.001h-26.884a3 3 0 1 1 0-6.001Z" fill="#fff" fill-opacity=".2"/><path d="M672.733 199.746h.857a2.495 2.495 0 0 1 2.495 2.494v1.012a2.495 2.495 0 0 1-2.495 2.495h-.857a2.494 2.494 0 0 1-2.494-2.495v-1.012a2.494 2.494 0 0 1 2.494-2.494Z" fill="#3D7FFC"/><path d="M664.694 199.746h.857a2.494 2.494 0 0 1 2.494 2.494v1.012a2.494 2.494 0 0 1-2.494 2.495h-.857a2.495 2.495 0 0 1-2.495-2.495v-1.012a2.495 2.495 0 0 1 2.495-2.494Z" fill="#15C1E6"/><path d="M656.655 199.746h.858a2.494 2.494 0 0 1 2.494 2.494v1.012a2.494 2.494 0 0 1-2.494 2.495h-.858a2.495 2.495 0 0 1-2.494-2.495v-1.012a2.495 2.495 0 0 1 2.494-2.494Z" fill="#3D7FFC"/><path d="M662.891 111.499c-.309-1.343.502-2.688 1.812-3.005 1.311-.317 2.624.514 2.933 1.857.309 1.343-.502 2.689-1.813 3.006-1.31.317-2.623-.515-2.932-1.858ZM670.201 111.329c-.216-1.362.687-2.645 2.016-2.866 1.328-.221 2.581.704 2.796 2.066.216 1.362-.686 2.645-2.015 2.866-1.329.221-2.581-.704-2.797-2.066ZM678.234 112.693a2.542 2.542 0 0 1 0-3.533 2.396 2.396 0 0 1 3.448 0 2.542 2.542 0 0 1 0 3.533 2.396 2.396 0 0 1-3.448 0Z" fill="#0BE597"/><path d="M558.193 119.049h72.732c2.316 0 4.193 1.497 4.193 3.343v129.839c0 1.846-1.877 3.343-4.193 3.343h-72.732c-2.316 0-4.193-1.497-4.193-3.343V122.392c0-1.846 1.877-3.343 4.193-3.343Z" fill="url(#f)"/><path d="M567.397 141.781h54.612a6.466 6.466 0 0 1 6.466 6.466v80.268a6.467 6.467 0 0 1-6.466 6.467h-54.612a6.467 6.467 0 0 1-6.466-6.467v-80.268a6.466 6.466 0 0 1 6.466-6.466Z" fill="#E7EEFF" fill-opacity=".17"/><path d="M568.204 153.147h26.884a3 3 0 1 1 0 6.001h-26.884a3 3 0 1 1 0-6.001Z" fill="#fff" fill-opacity=".2"/><path d="M619.584 153.147h.858a2.495 2.495 0 0 1 2.494 2.495v1.012a2.495 2.495 0 0 1-2.494 2.494h-.858a2.495 2.495 0 0 1-2.494-2.494v-1.012a2.495 2.495 0 0 1 2.494-2.495Z" fill="#3D7FFC"/><path d="M611.545 153.147h.857a2.495 2.495 0 0 1 2.495 2.495v1.012a2.495 2.495 0 0 1-2.495 2.494h-.857a2.494 2.494 0 0 1-2.494-2.494v-1.012a2.494 2.494 0 0 1 2.494-2.495Z" fill="#15C1E6"/><path d="M603.507 153.147h.857a2.495 2.495 0 0 1 2.495 2.495v1.012a2.495 2.495 0 0 1-2.495 2.494h-.857a2.494 2.494 0 0 1-2.494-2.494v-1.012a2.494 2.494 0 0 1 2.494-2.495Z" fill="#3D7FFC"/><path d="M568.204 169.06h26.884a3 3 0 1 1 0 6.001h-26.884a3 3 0 1 1 0-6.001Z" fill="#fff" fill-opacity=".2"/><path d="M619.584 169.06h.858a2.495 2.495 0 0 1 2.494 2.494v1.012a2.495 2.495 0 0 1-2.494 2.495h-.858a2.495 2.495 0 0 1-2.494-2.495v-1.012a2.495 2.495 0 0 1 2.494-2.494Z" fill="#9D97F4"/><path d="M611.545 169.06h.857a2.495 2.495 0 0 1 2.495 2.494v1.012a2.495 2.495 0 0 1-2.495 2.495h-.857a2.494 2.494 0 0 1-2.494-2.495v-1.012a2.494 2.494 0 0 1 2.494-2.494Z" fill="#3D7FFC"/><path d="M603.507 169.06h.857a2.495 2.495 0 0 1 2.495 2.494v1.012a2.495 2.495 0 0 1-2.495 2.495h-.857a2.494 2.494 0 0 1-2.494-2.495v-1.012a2.494 2.494 0 0 1 2.494-2.494Z" fill="#15C1E6"/><path d="M568.204 184.971h26.884a3 3 0 1 1 0 6.001h-26.884a3.002 3.002 0 0 1 0-6.001Z" fill="#fff" fill-opacity=".2"/><path d="M619.584 184.971h.858a2.495 2.495 0 0 1 2.494 2.494v1.012a2.495 2.495 0 0 1-2.494 2.495h-.858a2.495 2.495 0 0 1-2.494-2.495v-1.012a2.495 2.495 0 0 1 2.494-2.494Z" fill="#15C1E6"/><path d="M611.545 184.971h.857a2.495 2.495 0 0 1 2.495 2.494v1.012a2.495 2.495 0 0 1-2.495 2.495h-.857a2.494 2.494 0 0 1-2.494-2.495v-1.012a2.494 2.494 0 0 1 2.494-2.494ZM603.507 184.971h.857a2.495 2.495 0 0 1 2.495 2.494v1.012a2.495 2.495 0 0 1-2.495 2.495h-.857a2.494 2.494 0 0 1-2.494-2.495v-1.012a2.494 2.494 0 0 1 2.494-2.494Z" fill="#3D7FFC"/><path d="M568.204 200.882h26.884a3.002 3.002 0 0 1 0 6.002h-26.884a3.002 3.002 0 0 1 0-6.002Z" fill="#fff" fill-opacity=".2"/><path d="M619.584 200.883h.858a2.494 2.494 0 0 1 2.494 2.494v1.012a2.495 2.495 0 0 1-2.494 2.495h-.858a2.495 2.495 0 0 1-2.494-2.495v-1.012a2.494 2.494 0 0 1 2.494-2.494Z" fill="#3D7FFC"/><path d="M611.545 200.882h.857a2.495 2.495 0 0 1 2.495 2.495v1.012a2.495 2.495 0 0 1-2.495 2.495h-.857a2.494 2.494 0 0 1-2.494-2.495v-1.012a2.494 2.494 0 0 1 2.494-2.495Z" fill="#15C1E6"/><path d="M603.507 200.882h.857a2.495 2.495 0 0 1 2.495 2.495v1.012a2.495 2.495 0 0 1-2.495 2.495h-.857a2.494 2.494 0 0 1-2.494-2.495v-1.012a2.494 2.494 0 0 1 2.494-2.495Z" fill="#3D7FFC"/><path d="M568.204 216.796h26.884a3 3 0 1 1 0 6.001h-26.884a3 3 0 1 1 0-6.001Z" fill="#fff" fill-opacity=".2"/><path d="M619.584 216.796h.858a2.495 2.495 0 0 1 2.494 2.494v1.013a2.495 2.495 0 0 1-2.494 2.494h-.858a2.495 2.495 0 0 1-2.494-2.494v-1.013a2.495 2.495 0 0 1 2.494-2.494Z" fill="#3D7FFC"/><path d="M611.545 216.796h.857a2.495 2.495 0 0 1 2.495 2.494v1.013a2.495 2.495 0 0 1-2.495 2.494h-.857a2.494 2.494 0 0 1-2.494-2.494v-1.013a2.494 2.494 0 0 1 2.494-2.494Z" fill="#15C1E6"/><path d="M603.507 216.796h.857a2.495 2.495 0 0 1 2.495 2.494v1.013a2.495 2.495 0 0 1-2.495 2.494h-.857a2.494 2.494 0 0 1-2.494-2.494v-1.013a2.494 2.494 0 0 1 2.494-2.494Z" fill="#9D97F4"/><path d="M609.741 128.548c-.309-1.343.502-2.688 1.813-3.005 1.31-.317 2.623.515 2.932 1.858.309 1.342-.502 2.688-1.813 3.005-1.31.317-2.623-.515-2.932-1.858ZM617.051 128.375c-.216-1.362.686-2.645 2.015-2.866 1.329-.221 2.581.703 2.797 2.065.216 1.363-.687 2.646-2.016 2.867-1.329.221-2.581-.704-2.796-2.066ZM625.084 129.741a2.542 2.542 0 0 1 0-3.533 2.395 2.395 0 0 1 3.447 0 2.542 2.542 0 0 1 0 3.533 2.395 2.395 0 0 1-3.447 0Z" fill="#0BE597"/></g><g filter="url(#g)"><path d="M570 301.408a9.408 9.408 0 0 1 9.408-9.408h93.184a9.408 9.408 0 0 1 9.408 9.408v33.184a9.408 9.408 0 0 1-9.408 9.408h-93.184a9.408 9.408 0 0 1-9.408-9.408v-33.184Z" fill="url(#h)" shape-rendering="crispEdges"/><path d="M672.593 291.332c5.564 0 10.075 4.511 10.075 10.075v33.186c0 5.564-4.511 10.075-10.075 10.075h-93.186c-5.564 0-10.075-4.511-10.075-10.075v-33.186c0-5.564 4.511-10.075 10.075-10.075h93.186Z" stroke="url(#i)" stroke-width="1.337" shape-rendering="crispEdges"/><path d="M599.407 315.856c2.328.96 3.24 2.256 3.24 4.32 0 3.072-2.256 5.112-5.76 5.112-2.832 0-4.776-1.32-5.856-2.568l1.488-2.256c1.296 1.416 2.856 2.184 4.416 2.184 1.536 0 2.592-.744 2.592-2.184 0-1.296-.864-1.728-2.28-2.304l-2.592-1.032c-1.8-.72-3-1.992-3-4.008 0-2.88 2.256-4.872 5.736-4.872 2.352 0 4.056.984 5.04 1.992l-1.488 2.232c-1.056-.96-2.328-1.656-3.744-1.656-1.368 0-2.448.672-2.448 1.896 0 1.2 1.032 1.656 1.896 2.016l2.76 1.128Zm8.255 4.32c.288 1.848 1.704 2.736 3.456 2.736 1.56 0 2.952-.696 3.504-1.176l1.2 1.656c-.648.672-2.4 1.872-5.232 1.872-3.504 0-6.096-2.136-6.096-5.88 0-3.72 2.712-6.216 6.024-6.216 3.576 0 5.736 2.352 5.736 5.448 0 .6-.048 1.56-.048 1.56h-8.544Zm2.832-4.728c-1.824 0-2.784 1.272-2.88 2.736h5.568c-.048-1.272-.528-2.736-2.688-2.736Zm8.28-2.064h3.048l-.048 1.872h.072c.456-1.248 1.608-2.088 2.856-2.088.792 0 1.224.216 1.224.216l-.216 2.664h-.144c-.336-.096-.864-.144-1.272-.144-.912 0-1.608.384-2.04 1.128-.288.576-.432 1.368-.432 2.256V325h-3.048v-11.616Zm7.736 0h3.192l3.144 8.376 3.144-8.376h3.072L634.286 325h-3l-4.776-11.616Zm16.788 6.792c.288 1.848 1.704 2.736 3.456 2.736 1.56 0 2.952-.696 3.504-1.176l1.2 1.656c-.648.672-2.4 1.872-5.232 1.872-3.504 0-6.096-2.136-6.096-5.88 0-3.72 2.712-6.216 6.024-6.216 3.576 0 5.736 2.352 5.736 5.448 0 .6-.048 1.56-.048 1.56h-8.544Zm2.832-4.728c-1.824 0-2.784 1.272-2.88 2.736h5.568c-.048-1.272-.528-2.736-2.688-2.736Zm8.279-2.064h3.048l-.048 1.872h.072c.456-1.248 1.608-2.088 2.856-2.088.792 0 1.224.216 1.224.216l-.216 2.664h-.144c-.336-.096-.864-.144-1.272-.144-.912 0-1.608.384-2.04 1.128-.288.576-.432 1.368-.432 2.256V325h-3.048v-11.616Z" fill="#fff"/></g><path d="M356.621 86.68h-.181l-16.712 47.592h-8.265l-16.348-47.591h-.273L311.482 134h-11.353l5.177-62.668h15.531l15.167 44.957h.182l15.349-44.957h14.986L371.88 134h-11.626l-3.633-47.32Zm78.484 39.509c-3.542 3.815-10.353 8.901-22.705 8.901-18.347 0-32.515-12.443-32.515-32.333s14.35-32.334 32.515-32.334c12.261 0 19.345 5.177 21.888 7.72l-4.178 9.628c-1.816-2.362-8.901-7.175-17.801-7.175-10.899 0-20.254 7.175-20.254 21.979 0 13.533 8.447 22.343 20.98 22.343 8.356 0 14.169-3.633 17.893-7.63l4.177 8.901Zm9.558-54.857h20.162c6.267 0 11.717 1.271 15.713 4.632 4.087 3.36 6.539 7.81 6.539 14.168s-2.452 10.899-6.539 14.26c-3.996 3.36-9.446 4.904-15.713 4.904h-8.265V134h-11.897V71.332Zm18.709 28.7c3.633 0 6.085-.908 8.083-2.361 1.999-1.454 3.452-3.997 3.452-7.539 0-3.451-1.726-5.994-3.724-7.447-1.998-1.454-4.45-2.09-8.083-2.09h-6.63v19.437h6.902Z" fill="#fff"/><g filter="url(#j)"><path d="M108.5 301.408a9.408 9.408 0 0 1 9.408-9.408h86.184a9.408 9.408 0 0 1 9.408 9.408v33.184a9.408 9.408 0 0 1-9.408 9.408h-86.184a9.408 9.408 0 0 1-9.408-9.408v-33.184Z" fill="url(#k)" shape-rendering="crispEdges"/><path d="M204.093 291.332c5.564 0 10.075 4.511 10.075 10.075v33.186c0 5.564-4.511 10.075-10.075 10.075h-86.186c-5.564 0-10.075-4.511-10.075-10.075v-33.186c0-5.564 4.511-10.075 10.075-10.075h86.186Z" stroke="url(#l)" stroke-width="1.337" shape-rendering="crispEdges"/><path d="M143.871 322.936c-.936 1.008-2.736 2.352-6 2.352-4.848 0-8.592-3.288-8.592-8.544s3.792-8.544 8.592-8.544c3.24 0 5.112 1.368 5.784 2.04l-1.104 2.544c-.48-.624-2.352-1.896-4.704-1.896-2.88 0-5.352 1.896-5.352 5.808 0 3.576 2.232 5.904 5.544 5.904 2.208 0 3.744-.96 4.728-2.016l1.104 2.352Zm2.429-14.496h3.048V325H146.3v-16.56Zm8.11 3.096c-1.08 0-1.848-.696-1.848-1.704 0-.984.768-1.704 1.848-1.704s1.848.72 1.848 1.704c0 1.008-.768 1.704-1.848 1.704Zm-1.536 1.848h3.072V325h-3.072v-11.616Zm8.877 6.792c.288 1.848 1.704 2.736 3.456 2.736 1.56 0 2.952-.696 3.504-1.176l1.2 1.656c-.648.672-2.4 1.872-5.232 1.872-3.504 0-6.096-2.136-6.096-5.88 0-3.72 2.712-6.216 6.024-6.216 3.576 0 5.736 2.352 5.736 5.448 0 .6-.048 1.56-.048 1.56h-8.544Zm2.832-4.728c-1.824 0-2.784 1.272-2.88 2.736h5.568c-.048-1.272-.528-2.736-2.688-2.736Zm15.984 3.336c0-1.728-.312-3.096-2.088-3.096-1.896 0-2.544 1.584-2.544 3.528V325h-3.072v-11.616h3.072l-.024 1.752h.072c.624-1.224 1.8-1.968 3.48-1.968 3.336 0 4.176 2.16 4.176 4.944V325h-3.072v-6.216Zm9.898 1.704c0 1.776.312 2.208 1.392 2.208a3.28 3.28 0 0 0 1.104-.192l.168 2.376c-.144.048-1.056.384-2.352.384-2.376 0-3.36-1.08-3.36-4.104v-5.376h-1.728v-2.376h1.728v-3.312h3.048v3.312h2.688v2.376h-2.688v4.704Z" fill="#fff"/></g><path d="M516.206 179.293a1 1 0 0 1 0 1.414l-6.364 6.364a1 1 0 1 1-1.415-1.414l5.657-5.657-5.657-5.657a1 1 0 0 1 1.415-1.414l6.364 6.364Zm-.707 1.707H264v-2h251.499v2Z" fill="url(#m)"/><path d="M263.293 214.707a.999.999 0 0 1 0-1.414l6.364-6.364a.999.999 0 1 1 1.414 1.414L265.414 214l5.657 5.657a.999.999 0 1 1-1.414 1.414l-6.364-6.364ZM264 213h251.499v2H264v-2Z" fill="url(#n)"/><g filter="url(#o)"><rect x="91" y="116" width="140.203" height="140.203" rx="13.327" fill="url(#p)" shape-rendering="crispEdges"/><rect x="91.666" y="116.666" width="138.87" height="138.87" rx="12.661" stroke="url(#q)" stroke-width="1.333" shape-rendering="crispEdges"/><g clip-path="url(#r)" fill="#fff"><path d="M155.322 209.734a1.675 1.675 0 0 0-2.367 0l-4.625 4.625a1.665 1.665 0 0 0 0 2.367l4.625 4.626a1.673 1.673 0 1 0 2.367-2.367l-3.441-3.442 3.441-3.442a1.675 1.675 0 0 0 0-2.367ZM168.77 209.734a1.675 1.675 0 0 0-2.367 2.367l3.441 3.442-3.441 3.442a1.673 1.673 0 1 0 2.367 2.367l4.625-4.626c.312-.312.491-.741.491-1.183 0-.443-.175-.871-.491-1.184l-4.625-4.625ZM163.139 207.279a1.674 1.674 0 0 0-2.079 1.135l-4.102 13.935a1.677 1.677 0 0 0 1.609 2.149c.723 0 1.39-.474 1.605-1.201l4.102-13.935a1.677 1.677 0 0 0-1.135-2.079v-.004Z"/><path d="M176.018 228.095h-36.004a1.648 1.648 0 0 1-1.647-1.647v-24.127c0-.91.738-1.647 1.647-1.647h42.171c.909 0 1.647.737 1.647 1.647v24.127a1.65 1.65 0 0 1-1.647 1.647h-6.171.004Zm-46.971-5.732a2.69 2.69 0 0 1-.373-2.455 841.883 841.883 0 0 1 3.846-11.252c.502-1.432 1.394-2.792 2.5-4.052v18.901h-3.743a2.715 2.715 0 0 1-2.23-1.138v-.004Zm22.904-29.426 4.98 4.39h-12.025c1.907-1.008 3.259-1.577 3.301-1.594.011-.004.022-.011.036-.018l.087-.042c.025-.014.05-.025.071-.039.021-.014.045-.024.066-.042.028-.017.057-.038.085-.059.01-.008.021-.015.028-.022l3.371-2.577v.003Zm9.226-4.695a14.84 14.84 0 0 0 5.138-.913v4.618l-5.215 4.597-4.626-4.077v-4.987c1.479.491 3.059.762 4.699.762h.004Zm-11.568-14.915v-8.365c0-2.733 2.922-3.554 5.373-3.762.119-.01.235-.031.344-.066.021 0 .039.007.06.01 8.045.963 12.657-2.767 14.497-4.748 1.018.868 2.858 3.477 2.858 10.989v5.661c0 .046 0 .091.007.137-.003.046-.007.091-.007.137 0 6.377-5.187 11.565-11.568 11.565-6.381 0-11.568-5.188-11.568-11.565l.004.007Zm-5.725-3.93a2.766 2.766 0 0 1 2.378-2.732v5.461a2.76 2.76 0 0 1-2.378-2.732v.003Zm6.497-21.847a9.01 9.01 0 0 1 7.112-3.442h7.508c3.056 0 5.25.713 6.515 2.114 1.433 1.588 1.239 3.653 1.239 3.66a1.675 1.675 0 0 0 1.82 1.868c.014 0 1.524-.102 2.5.783.639.583.966 1.538.966 2.845v8.249a6.11 6.11 0 0 0-2.005-.34c-.05 0-.099 0-.148.007-1.032-9.704-5.686-10.561-6.272-10.627a1.692 1.692 0 0 0-1.588.734c-.151.221-3.771 5.429-12.242 4.418a1.683 1.683 0 0 0-.681.059 1.67 1.67 0 0 0-.401-.017c-2.145.182-3.926.706-5.288 1.527a41.008 41.008 0 0 0-.756-3.954c-.663-2.785-.035-5.661 1.725-7.891l-.004.007Zm25.707 24.607v-4.765c0-.256 0-.506-.007-.752a2.761 2.761 0 0 1 2.711 2.757 2.76 2.76 0 0 1-2.704 2.757v.003Zm-5.837 20.78 3.368 2.578.032.021c.025.018.053.039.081.056l.07.042.07.039.088.042c.011.007.025.011.035.018.021.01 1.384.579 3.305 1.594h-12.028l4.979-4.39Zm19.428 15.716a837.026 837.026 0 0 1 3.846 11.252 2.694 2.694 0 0 1-.373 2.458 2.713 2.713 0 0 1-2.23 1.138h-3.743v-18.883c1.194 1.359 2.037 2.711 2.5 4.035Zm8.808 19.442h-11.589a5.05 5.05 0 0 0 .263-1.247h3.761a6.03 6.03 0 0 0 4.945-2.529 6.006 6.006 0 0 0 .829-5.475 845.543 845.543 0 0 0-3.86-11.297c-2.932-8.355-15.512-14.027-17.352-14.817l-4.291-3.284a1.665 1.665 0 0 0-1.532-.256v-3.603c3.316-2.304 5.658-5.914 6.269-10.083.035 0 .07.007.106.007a6.114 6.114 0 0 0 6.107-6.107 6.053 6.053 0 0 0-.759-2.943v-11.076c0-2.29-.692-4.081-2.061-5.324-1.064-.966-2.301-1.38-3.291-1.549-.162-1.25-.643-2.96-1.984-4.474-1.925-2.17-4.969-3.273-9.05-3.273h-7.509a12.335 12.335 0 0 0-9.738 4.713c-2.399 3.038-3.256 6.953-2.353 10.743.66 2.763.966 5.137.92 7.083a6.117 6.117 0 0 0-5.784 6.1c0 3.259 2.62 5.984 5.886 6.104.639 4.348 3.161 8.091 6.708 10.374v3.638a1.673 1.673 0 0 0-2.118-.07l-4.295 3.284c-1.844.79-14.42 6.461-17.352 14.816a847.877 847.877 0 0 0-3.863 11.298 6 6 0 0 0 .829 5.475 6.024 6.024 0 0 0 4.944 2.528h3.761c.036.432.123.85.264 1.247h-11.582a1.674 1.674 0 1 0 0 3.35h74.774a1.675 1.675 0 1 0 0-3.35l-.003-.003Z"/></g></g><defs><linearGradient id="e" x1="681.43" y1="102" x2="575.76" y2="132.968" gradientUnits="userSpaceOnUse"><stop stop-color="#0C2966"/><stop offset="1" stop-color="#0045C9"/></linearGradient><linearGradient id="f" x1="628.279" y1="119.049" x2="522.61" y2="150.018" gradientUnits="userSpaceOnUse"><stop stop-color="#0C2966"/><stop offset="1" stop-color="#0045C9"/></linearGradient><linearGradient id="h" x1="688.623" y1="269.937" x2="646.767" y2="376.064" gradientUnits="userSpaceOnUse"><stop stop-color="#0A479C"/><stop offset="1" stop-color="#091B36"/></linearGradient><linearGradient id="i" x1="582.505" y1="341.17" x2="631.818" y2="261.512" gradientUnits="userSpaceOnUse"><stop stop-color="#3D7FFC"/><stop offset="1" stop-color="#15C1E6"/></linearGradient><linearGradient id="k" x1="219.709" y1="269.937" x2="175.875" y2="374.131" gradientUnits="userSpaceOnUse"><stop stop-color="#0A479C"/><stop offset="1" stop-color="#091B36"/></linearGradient><linearGradient id="l" x1="120.224" y1="341.17" x2="170.889" y2="264.441" gradientUnits="userSpaceOnUse"><stop stop-color="#3D7FFC"/><stop offset="1" stop-color="#15C1E6"/></linearGradient><linearGradient id="m" x1="515.157" y1="179.677" x2="264" y2="175" gradientUnits="userSpaceOnUse"><stop offset=".535" stop-color="#9FC0FF"/><stop offset="1" stop-color="#1B4A99" stop-opacity=".3"/></linearGradient><linearGradient id="n" x1="264.341" y1="214.323" x2="515.499" y2="219" gradientUnits="userSpaceOnUse"><stop offset=".535" stop-color="#9FC0FF"/><stop offset="1" stop-color="#1B4A99" stop-opacity=".3"/></linearGradient><linearGradient id="p" x1="96.722" y1="116" x2="238.078" y2="170.951" gradientUnits="userSpaceOnUse"><stop stop-color="#fff" stop-opacity=".09"/><stop offset="1" stop-color="#fff" stop-opacity=".3"/></linearGradient><linearGradient id="q" x1="110.059" y1="118.804" x2="245.215" y2="191.104" gradientUnits="userSpaceOnUse"><stop stop-color="#76A5FF"/><stop offset="1" stop-color="#fff" stop-opacity=".4"/></linearGradient><filter id="d" x="541.794" y="93.049" width="158.681" height="177.986" filterUnits="userSpaceOnUse" color-interpolation-filters="sRGB"><feFlood flood-opacity="0" result="BackgroundImageFix"/><feColorMatrix in="SourceAlpha" values="0 0 0 0 0 0 0 0 0 0 0 0 0 0 0 0 0 0 127 0" result="hardAlpha"/><feOffset dy="3.255"/><feGaussianBlur stdDeviation="6.103"/><feComposite in2="hardAlpha" operator="out"/><feColorMatrix values="0 0 0 0 0 0 0 0 0 0 0 0 0 0 0 0 0 0 0.25 0"/><feBlend in2="BackgroundImageFix" result="effect1_dropShadow_4322_8747"/><feBlend in="SourceGraphic" in2="effect1_dropShadow_4322_8747" result="shape"/></filter><filter id="g" x="562.314" y="284.314" width="134.629" height="74.63" filterUnits="userSpaceOnUse" color-interpolation-filters="sRGB"><feFlood flood-opacity="0" result="BackgroundImageFix"/><feColorMatrix in="SourceAlpha" values="0 0 0 0 0 0 0 0 0 0 0 0 0 0 0 0 0 0 127 0" result="hardAlpha"/><feOffset dx="4.536" dy="4.536"/><feGaussianBlur stdDeviation="4.536"/><feColorMatrix values="0 0 0 0 0 0 0 0 0 0.296699 0 0 0 0 0.858629 0 0 0 0.08 0"/><feBlend in2="BackgroundImageFix" result="effect1_dropShadow_4322_8747"/><feColorMatrix in="SourceAlpha" values="0 0 0 0 0 0 0 0 0 0 0 0 0 0 0 0 0 0 127 0" result="hardAlpha"/><feOffset/><feGaussianBlur stdDeviation="3.175"/><feComposite in2="hardAlpha" operator="out"/><feColorMatrix values="0 0 0 0 0.0354167 0 0 0 0 0.105426 0 0 0 0 0.2125 0 0 0 0.07 0"/><feBlend in2="effect1_dropShadow_4322_8747" result="effect2_dropShadow_4322_8747"/><feBlend in="SourceGraphic" in2="effect2_dropShadow_4322_8747" result="shape"/></filter><filter id="j" x="100.814" y="284.314" width="127.629" height="74.63" filterUnits="userSpaceOnUse" color-interpolation-filters="sRGB"><feFlood flood-opacity="0" result="BackgroundImageFix"/><feColorMatrix in="SourceAlpha" values="0 0 0 0 0 0 0 0 0 0 0 0 0 0 0 0 0 0 127 0" result="hardAlpha"/><feOffset dx="4.536" dy="4.536"/><feGaussianBlur stdDeviation="4.536"/><feColorMatrix values="0 0 0 0 0 0 0 0 0 0.296699 0 0 0 0 0.858629 0 0 0 0.08 0"/><feBlend in2="BackgroundImageFix" result="effect1_dropShadow_4322_8747"/><feColorMatrix in="SourceAlpha" values="0 0 0 0 0 0 0 0 0 0 0 0 0 0 0 0 0 0 127 0" result="hardAlpha"/><feOffset/><feGaussianBlur stdDeviation="3.175"/><feComposite in2="hardAlpha" operator="out"/><feColorMatrix values="0 0 0 0 0.0354167 0 0 0 0 0.105426 0 0 0 0 0.2125 0 0 0 0.07 0"/><feBlend in2="effect1_dropShadow_4322_8747" result="effect2_dropShadow_4322_8747"/><feBlend in="SourceGraphic" in2="effect2_dropShadow_4322_8747" result="shape"/></filter><filter id="o" x="57.765" y="88.545" width="206.672" height="206.672" filterUnits="userSpaceOnUse" color-interpolation-filters="sRGB"><feFlood flood-opacity="0" result="BackgroundImageFix"/><feColorMatrix in="SourceAlpha" values="0 0 0 0 0 0 0 0 0 0 0 0 0 0 0 0 0 0 127 0" result="hardAlpha"/><feMorphology radius="1.445" in="SourceAlpha" result="effect1_dropShadow_4322_8747"/><feOffset dy="5.78"/><feGaussianBlur stdDeviation="17.34"/><feComposite in2="hardAlpha" operator="out"/><feColorMatrix values="0 0 0 0 0 0 0 0 0 0 0 0 0 0 0 0 0 0 0.2 0"/><feBlend in2="BackgroundImageFix" result="effect1_dropShadow_4322_8747"/><feBlend in="SourceGraphic" in2="effect1_dropShadow_4322_8747" result="shape"/></filter><radialGradient id="a" cx="0" cy="0" r="1" gradientUnits="userSpaceOnUse" gradientTransform="rotate(-57.295 383.208 209.343) scale(531.782 588.419)"><stop stop-color="#0941AB"/><stop offset="1" stop-color="#091B36" stop-opacity="0"/></radialGradient><radialGradient id="b" cx="0" cy="0" r="1" gradientUnits="userSpaceOnUse" gradientTransform="matrix(-375.6551 315.2791 -285.8846 -340.63156 796.78 -9.722)"><stop stop-color="#0941AB"/><stop offset="1" stop-color="#091B36" stop-opacity="0"/></radialGradient><radialGradient id="c" cx="0" cy="0" r="1" gradientUnits="userSpaceOnUse" gradientTransform="rotate(-90.141 403.249 -3.24) scale(400.001 528.853)"><stop stop-color="#0941AB"/><stop offset="1" stop-color="#091B36" stop-opacity="0"/></radialGradient><clipPath id="r"><path fill="#fff" transform="translate(122.041 140.761)" d="M0 0h78.121v90.68H0z"/></clipPath></defs></svg>