<svg xmlns="http://www.w3.org/2000/svg" xml:space="preserve" width="2839" height="1082" shape-rendering="geometricPrecision" text-rendering="geometricPrecision" image-rendering="optimizeQuality" fill-rule="evenodd" clip-rule="evenodd" viewBox="0 0 2827.84 1077.82"><metadata/><path fill="#FCD900" fill-rule="nonzero" d="M1946.65 1077.82h881.19v-50.49h-881.19z"/><path fill="#DA251D" fill-rule="nonzero" d="M973.07 1077.82h881.18v-50.49H973.07z"/><path fill="#1F1A17" fill-rule="nonzero" d="M0 1077.82h881.19v-50.49H0z"/><path fill-rule="nonzero" d="M1946.65 881.19h881.19V0h-881.19zM0 881.19h881.19V0H0zM973.07 881.19h881.18V0H973.07z"/><path fill="#fff" fill-rule="nonzero" d="M2665.61 281.061c0-45.794-37.097-82.892-82.9-82.892h-390.944c-45.794 0-82.892 37.097-82.892 82.892v315.948c0 45.803 37.098 82.9 82.892 82.9h390.944c45.803 0 82.9-37.097 82.9-82.863V403.625h-282.67v82.891h178.301v110.53h-347.97V281.06h347.97v51.289h104.369V281.06z"/><path fill="#fff" d="M605.55 506.003c45.794 0 82.893-37.097 82.893-82.901v-142.04c0-45.795-37.099-82.892-82.893-82.892H175.099v481.74H279.46V280.998h283.89c11.425 0 20.695 9.279 20.695 20.732v100.64c0 11.462-9.27 20.732-20.695 20.732H388.606v82.9l195.439 174.453h146.243L523.613 506.003h81.936zM1302.3 492.902l105.234-201.507 105.224 201.507H1302.3zm308.087 187.007h121.272l-271.945-481.74h-104.397l-271.918 481.74h121.282l54.364-104.079h296.98l54.363 104.079z"/></svg>